#!OML:ASF H:\BabyWalks\Project 1\Capture day 1\Session 1\baby.ASF
:FULLY-SPECIFIED
:DEGREES
750
root 35.9784 17.5549 -5.50839 -175.86 76.8565 -183.596
lowerback 18.2111 -2.26728 3.4195
upperback 5.13209 -1.75557 3.07727
thorax -4.68668 -0.705821 1.70254
lowerneck -0.720083 -2.8841 3.12954
upperneck -8.36086 -4.1136 -6.0584
head -2.77546 -1.91537 -2.43265
rclavicle 4.37326e-015 -5.40694e-014
rhumerus -43.879 4.90284 -74.2699
rradius 51.8281
rwrist -2.61223
rhand -12.3163 -17.7291
rfingers 7.12502
rthumb 13.7521 -47.2546
lclavicle 4.37326e-015 -5.40694e-014
lhumerus -43.4496 -7.49885 83.6687
lradius 66.168
lwrist 3.66426
lhand -0.306053 8.01458
lfingers 7.12502
lthumb 25.2972 36.3571
rfemur -24.2247 5.00696 22.0151
rtibia 36.9518
rfoot -18.1588 -7.31036
rtoes 6.14404
lfemur 16.3484 -4.69782 -12.5285
ltibia 4.77083e-014
lfoot -10.9522 1.49458
ltoes -24.8514
751
root 35.976 17.5547 -5.51561 -175.649 76.9223 -183.365
lowerback 18.2113 -2.26767 3.41154
upperback 5.12952 -1.75855 3.07176
thorax -4.68943 -0.707609 1.70191
lowerneck -0.721063 -2.879 3.11792
upperneck -8.37275 -4.10643 -6.04676
head -2.77817 -1.91155 -2.42684
rclavicle -2.42517e-014 -4.6118e-014
rhumerus -43.8366 4.85483 -74.2587
rradius 52.0197
rwrist -2.80847
rhand -12.5782 -17.7433
rfingers 7.12502
rthumb 13.4997 -47.2858
lclavicle -2.42517e-014 -4.6118e-014
lhumerus -43.4805 -7.47741 83.7162
lradius 65.7858
lwrist 3.59775
lhand -0.208735 8.10315
lfingers 7.12502
lthumb 25.3904 36.4325
rfemur -24.2071 5.04995 22.0516
rtibia 36.9264
rfoot -18.1314 -7.31155
rtoes 6.11284
lfemur 16.3878 -4.62958 -12.4883
ltibia -3.49861e-014
lfoot -11.0125 1.46238
ltoes -24.8652
752
root 35.9733 17.5544 -5.52288 -175.462 76.9905 -183.161
lowerback 18.2087 -2.26576 3.40219
upperback 5.1272 -1.75922 3.06383
thorax -4.69051 -0.708306 1.69888
lowerneck -0.724941 -2.87294 3.10244
upperneck -8.37992 -4.09767 -6.03156
head -2.77842 -1.90705 -2.41915
rclavicle 3.85642e-014 -9.46215e-014
rhumerus -43.7955 4.81562 -74.2628
rradius 52.2113
rwrist -2.99723
rhand -12.8186 -17.7482
rfingers 7.12502
rthumb 13.268 -47.3059
lclavicle 3.85642e-014 -9.46215e-014
lhumerus -43.5046 -7.45358 83.752
lradius 65.3834
lwrist 3.52263
lhand -0.121782 8.18339
lfingers 7.12502
lthumb 25.4737 36.5008
rfemur -24.1964 5.09603 22.079
rtibia 36.906
rfoot -18.103 -7.30953
rtoes 6.08787
lfemur 16.4239 -4.55825 -12.4582
ltibia -1.27222e-014
lfoot -11.0715 1.43761
ltoes -24.8747
753
root 35.9704 17.5541 -5.53009 -175.32 77.0583 -183.004
lowerback 18.2062 -2.26242 3.38639
upperback 5.12518 -1.75954 3.05222
thorax -4.69124 -0.708841 1.69547
lowerneck -0.729656 -2.86518 3.08369
upperneck -8.38247 -4.08622 -6.01085
head -2.77653 -1.9014 -2.40905
rclavicle -3.89618e-014 -2.38542e-014
rhumerus -43.7565 4.79102 -74.2848
rradius 52.4012
rwrist -3.18277
rhand -13.0336 -17.7491
rfingers 7.12502
rthumb 13.0608 -47.3202
lclavicle -3.89618e-014 -2.38542e-014
lhumerus -43.5221 -7.42805 83.7751
lradius 64.9626
lwrist 3.44281
lhand -0.0408423 8.25561
lfingers 7.12502
lthumb 25.5513 36.562
rfemur -24.1909 5.13585 22.0941
rtibia 36.8937
rfoot -18.0772 -7.30111
rtoes 6.06063
lfemur 16.4578 -4.487 -12.443
ltibia -4.77083e-014
lfoot -11.1314 1.42282
ltoes -24.8631
754
root 35.9672 17.5536 -5.53722 -175.221 77.1267 -182.893
lowerback 18.2041 -2.2567 3.36518
upperback 5.12418 -1.75797 3.03753
thorax -4.69102 -0.708444 1.69142
lowerneck -0.743274 -2.85819 3.06317
upperneck -8.37754 -4.07554 -5.98835
head -2.77041 -1.89637 -2.39803
rclavicle -5.56597e-015 -7.15625e-015
rhumerus -43.7175 4.77294 -74.3204
rradius 52.5901
rwrist -3.35456
rhand -13.2207 -17.7366
rfingers 7.12502
rthumb 12.8805 -47.3191
lclavicle -5.56597e-015 -7.15625e-015
lhumerus -43.5303 -7.40068 83.7855
lradius 64.528
lwrist 3.35708
lhand 0.0373013 8.32566
lfingers 7.12502
lthumb 25.6261 36.6213
rfemur -24.1938 5.17408 22.0974
rtibia 36.8937
rfoot -18.0572 -7.29059
rtoes 6.0353
lfemur 16.4885 -4.41506 -12.4418
ltibia -6.04305e-014
lfoot -11.1866 1.41466
ltoes -24.8792
755
root 35.9636 17.5528 -5.54426 -175.15 77.1933 -182.811
lowerback 18.202 -2.25045 3.33905
upperback 5.12425 -1.75664 3.02222
thorax -4.68954 -0.70811 1.68951
lowerneck -0.763108 -2.85028 3.04993
upperneck -8.36777 -4.06391 -5.97378
head -2.76195 -1.89103 -2.39109
rclavicle -2.90226e-014 -1.59028e-014
rhumerus -43.6784 4.76881 -74.3694
rradius 52.7774
rwrist -3.51165
rhand -13.3751 -17.7164
rfingers 7.12502
rthumb 12.7316 -47.3083
lclavicle -2.90226e-014 -1.59028e-014
lhumerus -43.5321 -7.36686 83.7834
lradius 64.0816
lwrist 3.26349
lhand 0.115354 8.39638
lfingers 7.12502
lthumb 25.7009 36.6812
rfemur -24.2047 5.20371 22.0932
rtibia 36.9075
rfoot -18.0452 -7.27316
rtoes 6.01028
lfemur 16.5173 -4.34445 -12.4508
ltibia -2.8625e-014
lfoot -11.2425 1.41596
ltoes -24.8918
756
root 35.9595 17.5514 -5.55118 -175.105 77.2587 -182.756
lowerback 18.2016 -2.24369 3.30943
upperback 5.12478 -1.75527 3.00524
thorax -4.68846 -0.707737 1.68783
lowerneck -0.782183 -2.84056 3.03764
upperneck -8.35662 -4.04977 -5.95856
head -2.75305 -1.88451 -2.38415
rclavicle 4.92986e-014 -6.99722e-014
rhumerus -43.6413 4.77757 -74.4344
rradius 52.9626
rwrist -3.6507
rhand -13.5017 -17.69
rfingers 7.12502
rthumb 12.6096 -47.2894
lclavicle 4.92986e-014 -6.99722e-014
lhumerus -43.5303 -7.32821 83.7667
lradius 63.6278
lwrist 3.16405
lhand 0.19688 8.46969
lfingers 7.12502
lthumb 25.7789 36.7432
rfemur -24.2246 5.21303 22.0845
rtibia 36.9351
rfoot -18.0383 -7.23643
rtoes 5.99783
lfemur 16.5448 -4.27491 -12.4683
ltibia 2.54444e-014
lfoot -11.3003 1.42586
ltoes -24.9039
757
root 35.9552 17.5497 -5.55794 -175.076 77.3248 -182.718
lowerback 18.1989 -2.23562 3.27741
upperback 5.12693 -1.7528 2.98793
thorax -4.68432 -0.706774 1.68679
lowerneck -0.800597 -2.82913 3.03098
upperneck -8.34731 -4.03368 -5.94941
head -2.74517 -1.87697 -2.38034
rclavicle 2.54444e-014 2.14687e-014
rhumerus -43.6054 4.80016 -74.5133
rradius 53.1473
rwrist -3.77451
rhand -13.6016 -17.6637
rfingers 7.12502
rthumb 12.5133 -47.269
lclavicle 2.54444e-014 2.14687e-014
lhumerus -43.524 -7.28192 83.7359
lradius 63.1688
lwrist 3.05457
lhand 0.27982 8.54039
lfingers 7.12502
lthumb 25.8584 36.8024
rfemur -24.2534 5.20514 22.0734
rtibia 36.9741
rfoot -18.036 -7.18128
rtoes 5.99111
lfemur 16.5709 -4.20441 -12.4918
ltibia -9.54166e-015
lfoot -11.3602 1.44335
ltoes -24.9108
758
root 35.9508 17.5478 -5.5647 -175.054 77.3943 -182.686
lowerback 18.1938 -2.22636 3.24482
upperback 5.13211 -1.74896 2.97065
thorax -4.67569 -0.705038 1.68566
lowerneck -0.821207 -2.81803 3.02915
upperneck -8.3379 -4.01836 -5.94689
head -2.73726 -1.86978 -2.37966
rclavicle -2.78299e-015 5.1684e-014
rhumerus -43.5703 4.8363 -74.6059
rradius 53.3306
rwrist -3.87936
rhand -13.671 -17.6383
rfingers 7.12502
rthumb 12.4463 -47.2477
lclavicle -2.78299e-015 5.1684e-014
lhumerus -43.5142 -7.22494 83.6902
lradius 62.7091
lwrist 2.93706
lhand 0.366394 8.61057
lfingers 7.12502
lthumb 25.9413 36.8604
rfemur -24.2856 5.19117 22.0617
rtibia 37.0217
rfoot -18.0344 -7.11739
rtoes 5.99876
lfemur 16.6 -4.13031 -12.5194
ltibia 2.54444e-014
lfoot -11.4237 1.46829
ltoes -24.915
759
root 35.9464 17.5457 -5.57128 -175.01 77.4657 -182.632
lowerback 18.1835 -2.21623 3.21615
upperback 5.13956 -1.74335 2.95555
thorax -4.66196 -0.702362 1.684
lowerneck -0.837228 -2.80692 3.02625
upperneck -8.33333 -4.00316 -5.94413
head -2.7318 -1.86247 -2.37869
rclavicle 1.59028e-014 4.77083e-015
rhumerus -43.5369 4.88452 -74.7118
rradius 53.5115
rwrist -3.96767
rhand -13.7136 -17.6142
rfingers 7.12502
rthumb 12.4052 -47.2261
lclavicle 1.59028e-014 4.77083e-015
lhumerus -43.5016 -7.15823 83.6292
lradius 62.2499
lwrist 2.8121
lhand 0.453345 8.67834
lfingers 7.12502
lthumb 26.0245 36.916
rfemur -24.3216 5.18439 22.0553
rtibia 37.0731
rfoot -18.0316 -7.05875
rtoes 6.00963
lfemur 16.6291 -4.0538 -12.5425
ltibia 9.54166e-015
lfoot -11.4897 1.49823
ltoes -24.9128
760
root 35.9421 17.5435 -5.57774 -174.955 77.5391 -182.567
lowerback 18.1715 -2.20452 3.19219
upperback 5.147 -1.73491 2.94076
thorax -4.64743 -0.69832 1.67934
lowerneck -0.844109 -2.79519 3.02393
upperneck -8.33148 -3.98721 -5.94228
head -2.72894 -1.85462 -2.37808
rclavicle 1.86858e-014 4.29375e-014
rhumerus -43.512 4.94622 -74.831
rradius 53.6887
rwrist -4.04336
rhand -13.7307 -17.5851
rfingers 7.12502
rthumb 12.3887 -47.198
lclavicle 1.86858e-014 4.29375e-014
lhumerus -43.4926 -7.08373 83.5544
lradius 61.7966
lwrist 2.67818
lhand 0.541177 8.74034
lfingers 7.12502
lthumb 26.1086 36.9656
rfemur -24.3584 5.1781 22.0525
rtibia 37.125
rfoot -18.025 -6.99944
rtoes 6.02691
lfemur 16.66 -3.97498 -12.5637
ltibia 4.45278e-014
lfoot -11.5589 1.53247
ltoes -24.8999
761
root 35.9377 17.5414 -5.58411 -174.895 77.6164 -182.493
lowerback 18.1588 -2.1914 3.16846
upperback 5.15678 -1.72439 2.92777
thorax -4.63008 -0.693161 1.67594
lowerneck -0.849276 -2.78216 3.02578
upperneck -8.33107 -3.96998 -5.9483
head -2.72719 -1.84597 -2.38092
rclavicle 5.56597e-015 -1.43125e-014
rhumerus -43.4901 5.02412 -74.9615
rradius 53.8619
rwrist -4.11
rhand -13.7229 -17.5542
rfingers 7.12502
rthumb 12.3963 -47.1667
lclavicle 5.56597e-015 -1.43125e-014
lhumerus -43.4854 -6.99666 83.4665
lradius 61.3557
lwrist 2.5408
lhand 0.633314 8.8059
lfingers 7.12502
lthumb 26.1968 37.0181
rfemur -24.392 5.18042 22.0513
rtibia 37.1742
rfoot -18.0138 -6.94633
rtoes 6.0418
lfemur 16.6943 -3.89247 -12.5843
ltibia -1.27222e-014
lfoot -11.6304 1.56993
ltoes -24.8741
762
root 35.9335 17.5395 -5.59034 -174.831 77.6913 -182.416
lowerback 18.1451 -2.17777 3.14817
upperback 5.16795 -1.71248 2.91563
thorax -4.61077 -0.687266 1.67114
lowerneck -0.856844 -2.76851 3.03071
upperneck -8.32999 -3.95211 -5.95843
head -2.72497 -1.83701 -2.38575
rclavicle 9.54166e-015 -2.46493e-014
rhumerus -43.4734 5.11183 -75.1014
rradius 54.0317
rwrist -4.16738
rhand -13.6848 -17.5209
rfingers 7.12502
rthumb 12.4331 -47.1311
lclavicle 9.54166e-015 -2.46493e-014
lhumerus -43.478 -6.9017 83.3665
lradius 60.9285
lwrist 2.40113
lhand 0.723414 8.87192
lfingers 7.12502
lthumb 26.2831 37.0713
rfemur -24.4229 5.18988 22.0506
rtibia 37.2188
rfoot -18 -6.90274
rtoes 6.05578
lfemur 16.7283 -3.81226 -12.6039
ltibia 2.22639e-014
lfoot -11.705 1.60925
ltoes -24.8353
763
root 35.9294 17.5379 -5.59651 -174.768 77.76 -182.34
lowerback 18.1311 -2.1652 3.13136
upperback 5.17954 -1.70119 2.90441
thorax -4.59088 -0.681634 1.66549
lowerneck -0.869264 -2.75452 3.03863
upperneck -8.32522 -3.93388 -5.97205
head -2.7208 -1.82798 -2.39233
rclavicle 4.6118e-014 -5.08889e-014
rhumerus -43.4623 5.21366 -75.2511
rradius 54.1942
rwrist -4.22197
rhand -13.6308 -17.4773
rfingers 7.12502
rthumb 12.4851 -47.0843
lclavicle 4.6118e-014 -5.08889e-014
lhumerus -43.4706 -6.79755 83.2551
lradius 60.5164
lwrist 2.26155
lhand 0.814528 8.94094
lfingers 7.12502
lthumb 26.3703 37.1273
rfemur -24.4489 5.20563 22.0486
rtibia 37.2559
rfoot -17.9832 -6.87123
rtoes 6.06498
lfemur 16.7604 -3.73802 -12.6239
ltibia 4.13472e-014
lfoot -11.7798 1.65055
ltoes -24.7854
764
root 35.9253 17.5369 -5.60241 -174.721 77.8215 -182.28
lowerback 18.1194 -2.15305 3.114
upperback 5.18901 -1.69037 2.89351
thorax -4.57453 -0.676281 1.66071
lowerneck -0.880847 -2.74107 3.05068
upperneck -8.31838 -3.91651 -5.9891
head -2.71635 -1.81945 -2.40079
rclavicle 3.18055e-015 2.62396e-014
rhumerus -43.4612 5.31947 -75.4081
rradius 54.3517
rwrist -4.26679
rhand -13.5621 -17.4234
rfingers 7.12502
rthumb 12.5513 -47.0264
lclavicle 3.18055e-015 2.62396e-014
lhumerus -43.4669 -6.68729 83.1334
lradius 60.1215
lwrist 2.12731
lhand 0.90193 9.00778
lfingers 7.12502
lthumb 26.454 37.1815
rfemur -24.4719 5.24141 22.0411
rtibia 37.2884
rfoot -17.9655 -6.86684
rtoes 6.06854
lfemur 16.7886 -3.67107 -12.6467
ltibia 6.36111e-014
lfoot -11.8544 1.69266
ltoes -24.7313
